# xmcd
#
# Track frame offsets:
# 150
# 13175
# 25160
# 40437
# 55107
# 68485
# 87072
# 101822
# 113522
# 124230
# 142187
# 153515
# 168060
# 182967
# 196495
#
# Disc length: 2813 seconds
#
#
# Revision: 0
# Processed by: cddbd v1.5.1PL0 Copyright (c) Steve Scherf et al.
# Submitted via: FreeRIP 2.942 
#
DISCID=c90afb0f
DTITLE=Vários - Na trilha do rei do gado
DYEAR=1900
DGENRE=Sertanejo raiz
TTITLE0=01 - Rei do gado - Divino and Donizete
TTITLE1=02 - Baile na roça - Tinoco and Zé Paulo
TTITLE2=03 - Caboclo na cidade - Dino Franco and Mouraí
TTITLE3=04 - A trilha do rei do gado - Oberdan
TTITLE4=05 - Cavalo enxuto - Divino and Donizete
TTITLE5=06 - Chico Mineiro -  Tinoco and Zé Paulo
TTITLE6=07 - Ave mensageira (Paloma blanca) -Lelli's and Lenno'n
TTITLE7=08 - Cavalo preto -  Dino Franco and Mouraí
TTITLE8=09 - Sou caipira mas não sou besta - Juliano and Jardel
TTITLE9=10 - Cavalo mecânico - Itamaracá and José Nilton
TTITLE10=11 - O peão e a boiada - Divino and Donizete
TTITLE11=12 - Só tem nome de sertão - Parreira and Douradinho
TTITLE12=13 - Furando poço - Alcino Alves and Rocha
TTITLE13=14 - Se você quiser carinho - Lelli's and Lenno'n
TTITLE14=15 - Só depois da novela
EXTD=
EXTT0=
EXTT1=
EXTT2=
EXTT3=
EXTT4=
EXTT5=
EXTT6=
EXTT7=
EXTT8=
EXTT9=
EXTT10=
EXTT11=
EXTT12=
EXTT13=
EXTT14=
PLAYORDER=
